M48
; DRILL file {KiCad (5.1.6)-1} date 04/01/21 07:09:00
; FORMAT={-:-/ absolute / inch / decimal}
; #@! TF.CreationDate,2021-04-01T07:09:00+01:00
; #@! TF.GenerationSoftware,Kicad,Pcbnew,(5.1.6)-1
; #@! TF.FileFunction,Plated,1,2,PTH
FMAT,2
INCH
T1C0.0315
T2C0.0787
T3C0.0827
%
G90
G05
T1
X5.2598Y-2.1567
X5.2598Y-2.2354
X5.2598Y-2.3142
X5.2598Y-2.3929
X5.2598Y-2.4717
X5.2598Y-2.5504
X5.2598Y-2.6291
X5.2598Y-2.7079
X5.2598Y-2.7866
X5.2598Y-2.8654
X5.2598Y-2.9441
X5.2598Y-3.0228
X5.2598Y-3.1016
X5.5787Y-3.341
X5.6575Y-3.341
X5.7362Y-3.341
X5.815Y-3.341
X5.8937Y-3.341
X5.9724Y-3.341
X6.0512Y-3.341
X6.1299Y-3.341
X6.4488Y-2.1567
X6.4488Y-2.2354
X6.4488Y-2.3142
X6.4488Y-2.3929
X6.4488Y-2.4717
X6.4488Y-2.5504
X6.4488Y-2.6291
X6.4488Y-2.7079
X6.4488Y-2.7866
X6.4488Y-2.8654
X6.4488Y-2.9441
X6.4488Y-3.0228
X6.4488Y-3.1016
T2
X5.6617Y-2.272
T3
X5.2795Y-1.95
X5.2795Y-3.322
X6.4291Y-3.322
T0
M30
