%TF.GenerationSoftware,KiCad,Pcbnew,(5.1.6)-1*%
%TF.CreationDate,2021-04-01T07:08:55+01:00*%
%TF.ProjectId,xbeesxadapter,78626565-7378-4616-9461-707465722e6b,rev?*%
%TF.SameCoordinates,Original*%
%TF.FileFunction,Copper,L2,Bot*%
%TF.FilePolarity,Positive*%
%FSLAX46Y46*%
G04 Gerber Fmt 4.6, Leading zero omitted, Abs format (unit mm)*
G04 Created by KiCad (PCBNEW (5.1.6)-1) date 2021-04-01 07:08:55*
%MOMM*%
%LPD*%
G01*
G04 APERTURE LIST*
%TA.AperFunction,ComponentPad*%
%ADD10R,2.790000X2.790000*%
%TD*%
%TA.AperFunction,ComponentPad*%
%ADD11C,1.350000*%
%TD*%
%TA.AperFunction,ComponentPad*%
%ADD12C,4.500000*%
%TD*%
%TA.AperFunction,Conductor*%
%ADD13C,0.500000*%
%TD*%
%TA.AperFunction,Conductor*%
%ADD14C,0.250000*%
%TD*%
%TA.AperFunction,Conductor*%
%ADD15C,0.254000*%
%TD*%
G04 APERTURE END LIST*
D10*
%TO.P,U1,M*%
%TO.N,GND*%
X143807500Y-57709500D03*
D11*
%TO.P,U1,1*%
X133600000Y-54780000D03*
%TO.P,U1,2*%
%TO.N,Net-(U1-Pad2)*%
X133600000Y-56780000D03*
%TO.P,U1,3*%
%TO.N,Net-(U1-Pad3)*%
X133600000Y-58780000D03*
%TO.P,U1,4*%
%TO.N,Net-(U1-Pad4)*%
X133600000Y-60780000D03*
%TO.P,U1,5*%
%TO.N,Net-(U1-Pad5)*%
X133600000Y-62780000D03*
%TO.P,U1,6*%
%TO.N,Net-(U1-Pad6)*%
X133600000Y-64780000D03*
%TO.P,U1,7*%
%TO.N,Net-(U1-Pad7)*%
X133600000Y-66780000D03*
%TO.P,U1,8*%
%TO.N,Net-(U1-Pad8)*%
X133600000Y-68780000D03*
%TO.P,U1,9*%
%TO.N,Net-(U1-Pad9)*%
X133600000Y-70780000D03*
%TO.P,U1,10*%
%TO.N,Net-(U1-Pad10)*%
X133600000Y-72780000D03*
%TO.P,U1,11*%
%TO.N,GND*%
X133600000Y-74780000D03*
%TO.P,U1,12*%
%TO.N,Net-(U1-Pad12)*%
X133600000Y-76780000D03*
%TO.P,U1,13*%
%TO.N,GND*%
X133600000Y-78780000D03*
%TO.P,U1,14*%
%TO.N,Net-(U1-Pad14)*%
X141700000Y-84862000D03*
%TO.P,U1,15*%
%TO.N,Net-(U1-Pad15)*%
X143700000Y-84862000D03*
%TO.P,U1,16*%
%TO.N,Net-(U1-Pad16)*%
X145700000Y-84862000D03*
%TO.P,U1,17*%
%TO.N,Net-(U1-Pad17)*%
X147700000Y-84862000D03*
%TO.P,U1,18*%
%TO.N,Net-(U1-Pad18)*%
X149700000Y-84862000D03*
%TO.P,U1,19*%
%TO.N,Net-(U1-Pad19)*%
X151700000Y-84862000D03*
%TO.P,U1,20*%
%TO.N,Net-(U1-Pad20)*%
X153700000Y-84862000D03*
%TO.P,U1,21*%
%TO.N,Net-(U1-Pad21)*%
X155700000Y-84862000D03*
%TO.P,U1,22*%
%TO.N,GND*%
X163800000Y-78780000D03*
%TO.P,U1,23*%
%TO.N,Net-(U1-Pad23)*%
X163800000Y-76780000D03*
%TO.P,U1,24*%
%TO.N,Net-(U1-Pad24)*%
X163800000Y-74780000D03*
%TO.P,U1,25*%
%TO.N,Net-(U1-Pad25)*%
X163800000Y-72780000D03*
%TO.P,U1,26*%
%TO.N,Net-(U1-Pad26)*%
X163800000Y-70780000D03*
%TO.P,U1,27*%
%TO.N,Net-(U1-Pad27)*%
X163800000Y-68780000D03*
%TO.P,U1,28*%
%TO.N,Net-(U1-Pad28)*%
X163800000Y-66780000D03*
%TO.P,U1,29*%
%TO.N,Net-(U1-Pad29)*%
X163800000Y-64780000D03*
%TO.P,U1,30*%
%TO.N,Net-(U1-Pad30)*%
X163800000Y-62780000D03*
%TO.P,U1,31*%
%TO.N,Net-(U1-Pad31)*%
X163800000Y-60780000D03*
%TO.P,U1,32*%
%TO.N,Net-(U1-Pad32)*%
X163800000Y-58780000D03*
%TO.P,U1,33*%
%TO.N,Net-(U1-Pad33)*%
X163800000Y-56780000D03*
%TO.P,U1,34*%
%TO.N,Net-(U1-Pad34)*%
X163800000Y-54780000D03*
D12*
%TO.P,U1,M*%
%TO.N,GND*%
X163300000Y-84380000D03*
X134100000Y-84380000D03*
X134100000Y-49530000D03*
%TD*%
D13*
%TO.N,GND*%
X136700000Y-81780000D02*
X134100000Y-84380000D01*
X143708500Y-57745000D02*
X143708500Y-73771500D01*
X143708500Y-73771500D02*
X140200000Y-77280000D01*
X140200000Y-77280000D02*
X140200000Y-81780000D01*
X140200000Y-81780000D02*
X136700000Y-81780000D01*
D14*
X132250000Y-77430000D02*
X133600000Y-78780000D01*
X132250000Y-76130000D02*
X132250000Y-77430000D01*
X133600000Y-74780000D02*
X132250000Y-76130000D01*
D13*
X143708500Y-73788500D02*
X143708500Y-73771500D01*
X146200000Y-76280000D02*
X143708500Y-73788500D01*
X155200000Y-76280000D02*
X146200000Y-76280000D01*
X157200000Y-78280000D02*
X155200000Y-76280000D01*
X158200000Y-81780000D02*
X157200000Y-80780000D01*
X160700000Y-81780000D02*
X158200000Y-81780000D01*
X157200000Y-80780000D02*
X157200000Y-78280000D01*
X163300000Y-84380000D02*
X160700000Y-81780000D01*
X135950000Y-49530000D02*
X134100000Y-49530000D01*
X143708500Y-57288500D02*
X135950000Y-49530000D01*
X143708500Y-57745000D02*
X143708500Y-57288500D01*
%TD*%
D15*
%TO.N,GND*%
G36*
X165170001Y-86250000D02*
G01*
X132230000Y-86250000D01*
X132230000Y-84732976D01*
X140390000Y-84732976D01*
X140390000Y-84991024D01*
X140440342Y-85244113D01*
X140539093Y-85482518D01*
X140682456Y-85697077D01*
X140864923Y-85879544D01*
X141079482Y-86022907D01*
X141317887Y-86121658D01*
X141570976Y-86172000D01*
X141829024Y-86172000D01*
X142082113Y-86121658D01*
X142320518Y-86022907D01*
X142535077Y-85879544D01*
X142700000Y-85714621D01*
X142864923Y-85879544D01*
X143079482Y-86022907D01*
X143317887Y-86121658D01*
X143570976Y-86172000D01*
X143829024Y-86172000D01*
X144082113Y-86121658D01*
X144320518Y-86022907D01*
X144535077Y-85879544D01*
X144700000Y-85714621D01*
X144864923Y-85879544D01*
X145079482Y-86022907D01*
X145317887Y-86121658D01*
X145570976Y-86172000D01*
X145829024Y-86172000D01*
X146082113Y-86121658D01*
X146320518Y-86022907D01*
X146535077Y-85879544D01*
X146700000Y-85714621D01*
X146864923Y-85879544D01*
X147079482Y-86022907D01*
X147317887Y-86121658D01*
X147570976Y-86172000D01*
X147829024Y-86172000D01*
X148082113Y-86121658D01*
X148320518Y-86022907D01*
X148535077Y-85879544D01*
X148700000Y-85714621D01*
X148864923Y-85879544D01*
X149079482Y-86022907D01*
X149317887Y-86121658D01*
X149570976Y-86172000D01*
X149829024Y-86172000D01*
X150082113Y-86121658D01*
X150320518Y-86022907D01*
X150535077Y-85879544D01*
X150700000Y-85714621D01*
X150864923Y-85879544D01*
X151079482Y-86022907D01*
X151317887Y-86121658D01*
X151570976Y-86172000D01*
X151829024Y-86172000D01*
X152082113Y-86121658D01*
X152320518Y-86022907D01*
X152535077Y-85879544D01*
X152700000Y-85714621D01*
X152864923Y-85879544D01*
X153079482Y-86022907D01*
X153317887Y-86121658D01*
X153570976Y-86172000D01*
X153829024Y-86172000D01*
X154082113Y-86121658D01*
X154320518Y-86022907D01*
X154535077Y-85879544D01*
X154700000Y-85714621D01*
X154864923Y-85879544D01*
X155079482Y-86022907D01*
X155317887Y-86121658D01*
X155570976Y-86172000D01*
X155829024Y-86172000D01*
X156082113Y-86121658D01*
X156320518Y-86022907D01*
X156535077Y-85879544D01*
X156717544Y-85697077D01*
X156860907Y-85482518D01*
X156959658Y-85244113D01*
X157010000Y-84991024D01*
X157010000Y-84732976D01*
X156959658Y-84479887D01*
X156860907Y-84241482D01*
X156827000Y-84190736D01*
X156827000Y-78862000D01*
X156824560Y-78837224D01*
X156817333Y-78813399D01*
X156805597Y-78791443D01*
X156789803Y-78772197D01*
X156770557Y-78756403D01*
X156748601Y-78744667D01*
X156724776Y-78737440D01*
X156700000Y-78735000D01*
X140700000Y-78735000D01*
X140675224Y-78737440D01*
X140651399Y-78744667D01*
X140629443Y-78756403D01*
X140610197Y-78772197D01*
X140594403Y-78791443D01*
X140582667Y-78813399D01*
X140575440Y-78837224D01*
X140573000Y-78862000D01*
X140573000Y-84190736D01*
X140539093Y-84241482D01*
X140440342Y-84479887D01*
X140390000Y-84732976D01*
X132230000Y-84732976D01*
X132230000Y-56650976D01*
X132290000Y-56650976D01*
X132290000Y-56909024D01*
X132340342Y-57162113D01*
X132439093Y-57400518D01*
X132582456Y-57615077D01*
X132747379Y-57780000D01*
X132582456Y-57944923D01*
X132439093Y-58159482D01*
X132340342Y-58397887D01*
X132290000Y-58650976D01*
X132290000Y-58909024D01*
X132340342Y-59162113D01*
X132439093Y-59400518D01*
X132582456Y-59615077D01*
X132747379Y-59780000D01*
X132582456Y-59944923D01*
X132439093Y-60159482D01*
X132340342Y-60397887D01*
X132290000Y-60650976D01*
X132290000Y-60909024D01*
X132340342Y-61162113D01*
X132439093Y-61400518D01*
X132582456Y-61615077D01*
X132747379Y-61780000D01*
X132582456Y-61944923D01*
X132439093Y-62159482D01*
X132340342Y-62397887D01*
X132290000Y-62650976D01*
X132290000Y-62909024D01*
X132340342Y-63162113D01*
X132439093Y-63400518D01*
X132582456Y-63615077D01*
X132747379Y-63780000D01*
X132582456Y-63944923D01*
X132439093Y-64159482D01*
X132340342Y-64397887D01*
X132290000Y-64650976D01*
X132290000Y-64909024D01*
X132340342Y-65162113D01*
X132439093Y-65400518D01*
X132582456Y-65615077D01*
X132747379Y-65780000D01*
X132582456Y-65944923D01*
X132439093Y-66159482D01*
X132340342Y-66397887D01*
X132290000Y-66650976D01*
X132290000Y-66909024D01*
X132340342Y-67162113D01*
X132439093Y-67400518D01*
X132582456Y-67615077D01*
X132747379Y-67780000D01*
X132582456Y-67944923D01*
X132439093Y-68159482D01*
X132340342Y-68397887D01*
X132290000Y-68650976D01*
X132290000Y-68909024D01*
X132340342Y-69162113D01*
X132439093Y-69400518D01*
X132582456Y-69615077D01*
X132747379Y-69780000D01*
X132582456Y-69944923D01*
X132439093Y-70159482D01*
X132340342Y-70397887D01*
X132290000Y-70650976D01*
X132290000Y-70909024D01*
X132340342Y-71162113D01*
X132439093Y-71400518D01*
X132582456Y-71615077D01*
X132747379Y-71780000D01*
X132582456Y-71944923D01*
X132439093Y-72159482D01*
X132340342Y-72397887D01*
X132290000Y-72650976D01*
X132290000Y-72909024D01*
X132340342Y-73162113D01*
X132439093Y-73400518D01*
X132582456Y-73615077D01*
X132764923Y-73797544D01*
X132979482Y-73940907D01*
X133217887Y-74039658D01*
X133470976Y-74090000D01*
X133729024Y-74090000D01*
X133973000Y-74041471D01*
X133973000Y-75518529D01*
X133729024Y-75470000D01*
X133470976Y-75470000D01*
X133217887Y-75520342D01*
X132979482Y-75619093D01*
X132764923Y-75762456D01*
X132582456Y-75944923D01*
X132439093Y-76159482D01*
X132340342Y-76397887D01*
X132290000Y-76650976D01*
X132290000Y-76909024D01*
X132340342Y-77162113D01*
X132439093Y-77400518D01*
X132582456Y-77615077D01*
X132764923Y-77797544D01*
X132979482Y-77940907D01*
X133217887Y-78039658D01*
X133470976Y-78090000D01*
X133729024Y-78090000D01*
X133973000Y-78041471D01*
X133973000Y-79780000D01*
X133975440Y-79804776D01*
X133982667Y-79828601D01*
X133994403Y-79850557D01*
X134010197Y-79869803D01*
X134029443Y-79885597D01*
X134051399Y-79897333D01*
X134075224Y-79904560D01*
X134100000Y-79907000D01*
X139600000Y-79907000D01*
X139624776Y-79904560D01*
X139648601Y-79897333D01*
X139670557Y-79885597D01*
X139689803Y-79869803D01*
X139705597Y-79850557D01*
X139717333Y-79828601D01*
X139724560Y-79804776D01*
X139727000Y-79780000D01*
X139727000Y-53780000D01*
X157673000Y-53780000D01*
X157673000Y-79780000D01*
X157675440Y-79804776D01*
X157682667Y-79828601D01*
X157694403Y-79850557D01*
X157710197Y-79869803D01*
X157729443Y-79885597D01*
X157751399Y-79897333D01*
X157775224Y-79904560D01*
X157800000Y-79907000D01*
X163300000Y-79907000D01*
X163324776Y-79904560D01*
X163348601Y-79897333D01*
X163370557Y-79885597D01*
X163389803Y-79869803D01*
X163405597Y-79850557D01*
X163417333Y-79828601D01*
X163424560Y-79804776D01*
X163427000Y-79780000D01*
X163427000Y-78041471D01*
X163670976Y-78090000D01*
X163929024Y-78090000D01*
X164182113Y-78039658D01*
X164420518Y-77940907D01*
X164635077Y-77797544D01*
X164817544Y-77615077D01*
X164960907Y-77400518D01*
X165059658Y-77162113D01*
X165110000Y-76909024D01*
X165110000Y-76650976D01*
X165059658Y-76397887D01*
X164960907Y-76159482D01*
X164817544Y-75944923D01*
X164652621Y-75780000D01*
X164817544Y-75615077D01*
X164960907Y-75400518D01*
X165059658Y-75162113D01*
X165110000Y-74909024D01*
X165110000Y-74650976D01*
X165059658Y-74397887D01*
X164960907Y-74159482D01*
X164817544Y-73944923D01*
X164652621Y-73780000D01*
X164817544Y-73615077D01*
X164960907Y-73400518D01*
X165059658Y-73162113D01*
X165110000Y-72909024D01*
X165110000Y-72650976D01*
X165059658Y-72397887D01*
X164960907Y-72159482D01*
X164817544Y-71944923D01*
X164652621Y-71780000D01*
X164817544Y-71615077D01*
X164960907Y-71400518D01*
X165059658Y-71162113D01*
X165110000Y-70909024D01*
X165110000Y-70650976D01*
X165059658Y-70397887D01*
X164960907Y-70159482D01*
X164817544Y-69944923D01*
X164652621Y-69780000D01*
X164817544Y-69615077D01*
X164960907Y-69400518D01*
X165059658Y-69162113D01*
X165110000Y-68909024D01*
X165110000Y-68650976D01*
X165059658Y-68397887D01*
X164960907Y-68159482D01*
X164817544Y-67944923D01*
X164652621Y-67780000D01*
X164817544Y-67615077D01*
X164960907Y-67400518D01*
X165059658Y-67162113D01*
X165110000Y-66909024D01*
X165110000Y-66650976D01*
X165059658Y-66397887D01*
X164960907Y-66159482D01*
X164817544Y-65944923D01*
X164652621Y-65780000D01*
X164817544Y-65615077D01*
X164960907Y-65400518D01*
X165059658Y-65162113D01*
X165110000Y-64909024D01*
X165110000Y-64650976D01*
X165059658Y-64397887D01*
X164960907Y-64159482D01*
X164817544Y-63944923D01*
X164652621Y-63780000D01*
X164817544Y-63615077D01*
X164960907Y-63400518D01*
X165059658Y-63162113D01*
X165110000Y-62909024D01*
X165110000Y-62650976D01*
X165059658Y-62397887D01*
X164960907Y-62159482D01*
X164817544Y-61944923D01*
X164652621Y-61780000D01*
X164817544Y-61615077D01*
X164960907Y-61400518D01*
X165059658Y-61162113D01*
X165110000Y-60909024D01*
X165110000Y-60650976D01*
X165059658Y-60397887D01*
X164960907Y-60159482D01*
X164817544Y-59944923D01*
X164652621Y-59780000D01*
X164817544Y-59615077D01*
X164960907Y-59400518D01*
X165059658Y-59162113D01*
X165110000Y-58909024D01*
X165110000Y-58650976D01*
X165059658Y-58397887D01*
X164960907Y-58159482D01*
X164817544Y-57944923D01*
X164652621Y-57780000D01*
X164817544Y-57615077D01*
X164960907Y-57400518D01*
X165059658Y-57162113D01*
X165110000Y-56909024D01*
X165110000Y-56650976D01*
X165059658Y-56397887D01*
X164960907Y-56159482D01*
X164817544Y-55944923D01*
X164652621Y-55780000D01*
X164817544Y-55615077D01*
X164960907Y-55400518D01*
X165059658Y-55162113D01*
X165110000Y-54909024D01*
X165110000Y-54650976D01*
X165059658Y-54397887D01*
X164960907Y-54159482D01*
X164817544Y-53944923D01*
X164635077Y-53762456D01*
X164420518Y-53619093D01*
X164182113Y-53520342D01*
X163929024Y-53470000D01*
X163670976Y-53470000D01*
X163417887Y-53520342D01*
X163179482Y-53619093D01*
X163128736Y-53653000D01*
X157800000Y-53653000D01*
X157775224Y-53655440D01*
X157751399Y-53662667D01*
X157729443Y-53674403D01*
X157710197Y-53690197D01*
X157694403Y-53709443D01*
X157682667Y-53731399D01*
X157675440Y-53755224D01*
X157673000Y-53780000D01*
X139727000Y-53780000D01*
X139724560Y-53755224D01*
X139717333Y-53731399D01*
X139705597Y-53709443D01*
X139689803Y-53690197D01*
X139670557Y-53674403D01*
X139648601Y-53662667D01*
X139624776Y-53655440D01*
X139600000Y-53653000D01*
X134100000Y-53653000D01*
X134075224Y-53655440D01*
X134051399Y-53662667D01*
X134029443Y-53674403D01*
X134010197Y-53690197D01*
X133994403Y-53709443D01*
X133982667Y-53731399D01*
X133975440Y-53755224D01*
X133973000Y-53780000D01*
X133973000Y-55518529D01*
X133729024Y-55470000D01*
X133470976Y-55470000D01*
X133217887Y-55520342D01*
X132979482Y-55619093D01*
X132764923Y-55762456D01*
X132582456Y-55944923D01*
X132439093Y-56159482D01*
X132340342Y-56397887D01*
X132290000Y-56650976D01*
X132230000Y-56650976D01*
X132230000Y-47660000D01*
X165170000Y-47660000D01*
X165170001Y-86250000D01*
G37*
X165170001Y-86250000D02*
X132230000Y-86250000D01*
X132230000Y-84732976D01*
X140390000Y-84732976D01*
X140390000Y-84991024D01*
X140440342Y-85244113D01*
X140539093Y-85482518D01*
X140682456Y-85697077D01*
X140864923Y-85879544D01*
X141079482Y-86022907D01*
X141317887Y-86121658D01*
X141570976Y-86172000D01*
X141829024Y-86172000D01*
X142082113Y-86121658D01*
X142320518Y-86022907D01*
X142535077Y-85879544D01*
X142700000Y-85714621D01*
X142864923Y-85879544D01*
X143079482Y-86022907D01*
X143317887Y-86121658D01*
X143570976Y-86172000D01*
X143829024Y-86172000D01*
X144082113Y-86121658D01*
X144320518Y-86022907D01*
X144535077Y-85879544D01*
X144700000Y-85714621D01*
X144864923Y-85879544D01*
X145079482Y-86022907D01*
X145317887Y-86121658D01*
X145570976Y-86172000D01*
X145829024Y-86172000D01*
X146082113Y-86121658D01*
X146320518Y-86022907D01*
X146535077Y-85879544D01*
X146700000Y-85714621D01*
X146864923Y-85879544D01*
X147079482Y-86022907D01*
X147317887Y-86121658D01*
X147570976Y-86172000D01*
X147829024Y-86172000D01*
X148082113Y-86121658D01*
X148320518Y-86022907D01*
X148535077Y-85879544D01*
X148700000Y-85714621D01*
X148864923Y-85879544D01*
X149079482Y-86022907D01*
X149317887Y-86121658D01*
X149570976Y-86172000D01*
X149829024Y-86172000D01*
X150082113Y-86121658D01*
X150320518Y-86022907D01*
X150535077Y-85879544D01*
X150700000Y-85714621D01*
X150864923Y-85879544D01*
X151079482Y-86022907D01*
X151317887Y-86121658D01*
X151570976Y-86172000D01*
X151829024Y-86172000D01*
X152082113Y-86121658D01*
X152320518Y-86022907D01*
X152535077Y-85879544D01*
X152700000Y-85714621D01*
X152864923Y-85879544D01*
X153079482Y-86022907D01*
X153317887Y-86121658D01*
X153570976Y-86172000D01*
X153829024Y-86172000D01*
X154082113Y-86121658D01*
X154320518Y-86022907D01*
X154535077Y-85879544D01*
X154700000Y-85714621D01*
X154864923Y-85879544D01*
X155079482Y-86022907D01*
X155317887Y-86121658D01*
X155570976Y-86172000D01*
X155829024Y-86172000D01*
X156082113Y-86121658D01*
X156320518Y-86022907D01*
X156535077Y-85879544D01*
X156717544Y-85697077D01*
X156860907Y-85482518D01*
X156959658Y-85244113D01*
X157010000Y-84991024D01*
X157010000Y-84732976D01*
X156959658Y-84479887D01*
X156860907Y-84241482D01*
X156827000Y-84190736D01*
X156827000Y-78862000D01*
X156824560Y-78837224D01*
X156817333Y-78813399D01*
X156805597Y-78791443D01*
X156789803Y-78772197D01*
X156770557Y-78756403D01*
X156748601Y-78744667D01*
X156724776Y-78737440D01*
X156700000Y-78735000D01*
X140700000Y-78735000D01*
X140675224Y-78737440D01*
X140651399Y-78744667D01*
X140629443Y-78756403D01*
X140610197Y-78772197D01*
X140594403Y-78791443D01*
X140582667Y-78813399D01*
X140575440Y-78837224D01*
X140573000Y-78862000D01*
X140573000Y-84190736D01*
X140539093Y-84241482D01*
X140440342Y-84479887D01*
X140390000Y-84732976D01*
X132230000Y-84732976D01*
X132230000Y-56650976D01*
X132290000Y-56650976D01*
X132290000Y-56909024D01*
X132340342Y-57162113D01*
X132439093Y-57400518D01*
X132582456Y-57615077D01*
X132747379Y-57780000D01*
X132582456Y-57944923D01*
X132439093Y-58159482D01*
X132340342Y-58397887D01*
X132290000Y-58650976D01*
X132290000Y-58909024D01*
X132340342Y-59162113D01*
X132439093Y-59400518D01*
X132582456Y-59615077D01*
X132747379Y-59780000D01*
X132582456Y-59944923D01*
X132439093Y-60159482D01*
X132340342Y-60397887D01*
X132290000Y-60650976D01*
X132290000Y-60909024D01*
X132340342Y-61162113D01*
X132439093Y-61400518D01*
X132582456Y-61615077D01*
X132747379Y-61780000D01*
X132582456Y-61944923D01*
X132439093Y-62159482D01*
X132340342Y-62397887D01*
X132290000Y-62650976D01*
X132290000Y-62909024D01*
X132340342Y-63162113D01*
X132439093Y-63400518D01*
X132582456Y-63615077D01*
X132747379Y-63780000D01*
X132582456Y-63944923D01*
X132439093Y-64159482D01*
X132340342Y-64397887D01*
X132290000Y-64650976D01*
X132290000Y-64909024D01*
X132340342Y-65162113D01*
X132439093Y-65400518D01*
X132582456Y-65615077D01*
X132747379Y-65780000D01*
X132582456Y-65944923D01*
X132439093Y-66159482D01*
X132340342Y-66397887D01*
X132290000Y-66650976D01*
X132290000Y-66909024D01*
X132340342Y-67162113D01*
X132439093Y-67400518D01*
X132582456Y-67615077D01*
X132747379Y-67780000D01*
X132582456Y-67944923D01*
X132439093Y-68159482D01*
X132340342Y-68397887D01*
X132290000Y-68650976D01*
X132290000Y-68909024D01*
X132340342Y-69162113D01*
X132439093Y-69400518D01*
X132582456Y-69615077D01*
X132747379Y-69780000D01*
X132582456Y-69944923D01*
X132439093Y-70159482D01*
X132340342Y-70397887D01*
X132290000Y-70650976D01*
X132290000Y-70909024D01*
X132340342Y-71162113D01*
X132439093Y-71400518D01*
X132582456Y-71615077D01*
X132747379Y-71780000D01*
X132582456Y-71944923D01*
X132439093Y-72159482D01*
X132340342Y-72397887D01*
X132290000Y-72650976D01*
X132290000Y-72909024D01*
X132340342Y-73162113D01*
X132439093Y-73400518D01*
X132582456Y-73615077D01*
X132764923Y-73797544D01*
X132979482Y-73940907D01*
X133217887Y-74039658D01*
X133470976Y-74090000D01*
X133729024Y-74090000D01*
X133973000Y-74041471D01*
X133973000Y-75518529D01*
X133729024Y-75470000D01*
X133470976Y-75470000D01*
X133217887Y-75520342D01*
X132979482Y-75619093D01*
X132764923Y-75762456D01*
X132582456Y-75944923D01*
X132439093Y-76159482D01*
X132340342Y-76397887D01*
X132290000Y-76650976D01*
X132290000Y-76909024D01*
X132340342Y-77162113D01*
X132439093Y-77400518D01*
X132582456Y-77615077D01*
X132764923Y-77797544D01*
X132979482Y-77940907D01*
X133217887Y-78039658D01*
X133470976Y-78090000D01*
X133729024Y-78090000D01*
X133973000Y-78041471D01*
X133973000Y-79780000D01*
X133975440Y-79804776D01*
X133982667Y-79828601D01*
X133994403Y-79850557D01*
X134010197Y-79869803D01*
X134029443Y-79885597D01*
X134051399Y-79897333D01*
X134075224Y-79904560D01*
X134100000Y-79907000D01*
X139600000Y-79907000D01*
X139624776Y-79904560D01*
X139648601Y-79897333D01*
X139670557Y-79885597D01*
X139689803Y-79869803D01*
X139705597Y-79850557D01*
X139717333Y-79828601D01*
X139724560Y-79804776D01*
X139727000Y-79780000D01*
X139727000Y-53780000D01*
X157673000Y-53780000D01*
X157673000Y-79780000D01*
X157675440Y-79804776D01*
X157682667Y-79828601D01*
X157694403Y-79850557D01*
X157710197Y-79869803D01*
X157729443Y-79885597D01*
X157751399Y-79897333D01*
X157775224Y-79904560D01*
X157800000Y-79907000D01*
X163300000Y-79907000D01*
X163324776Y-79904560D01*
X163348601Y-79897333D01*
X163370557Y-79885597D01*
X163389803Y-79869803D01*
X163405597Y-79850557D01*
X163417333Y-79828601D01*
X163424560Y-79804776D01*
X163427000Y-79780000D01*
X163427000Y-78041471D01*
X163670976Y-78090000D01*
X163929024Y-78090000D01*
X164182113Y-78039658D01*
X164420518Y-77940907D01*
X164635077Y-77797544D01*
X164817544Y-77615077D01*
X164960907Y-77400518D01*
X165059658Y-77162113D01*
X165110000Y-76909024D01*
X165110000Y-76650976D01*
X165059658Y-76397887D01*
X164960907Y-76159482D01*
X164817544Y-75944923D01*
X164652621Y-75780000D01*
X164817544Y-75615077D01*
X164960907Y-75400518D01*
X165059658Y-75162113D01*
X165110000Y-74909024D01*
X165110000Y-74650976D01*
X165059658Y-74397887D01*
X164960907Y-74159482D01*
X164817544Y-73944923D01*
X164652621Y-73780000D01*
X164817544Y-73615077D01*
X164960907Y-73400518D01*
X165059658Y-73162113D01*
X165110000Y-72909024D01*
X165110000Y-72650976D01*
X165059658Y-72397887D01*
X164960907Y-72159482D01*
X164817544Y-71944923D01*
X164652621Y-71780000D01*
X164817544Y-71615077D01*
X164960907Y-71400518D01*
X165059658Y-71162113D01*
X165110000Y-70909024D01*
X165110000Y-70650976D01*
X165059658Y-70397887D01*
X164960907Y-70159482D01*
X164817544Y-69944923D01*
X164652621Y-69780000D01*
X164817544Y-69615077D01*
X164960907Y-69400518D01*
X165059658Y-69162113D01*
X165110000Y-68909024D01*
X165110000Y-68650976D01*
X165059658Y-68397887D01*
X164960907Y-68159482D01*
X164817544Y-67944923D01*
X164652621Y-67780000D01*
X164817544Y-67615077D01*
X164960907Y-67400518D01*
X165059658Y-67162113D01*
X165110000Y-66909024D01*
X165110000Y-66650976D01*
X165059658Y-66397887D01*
X164960907Y-66159482D01*
X164817544Y-65944923D01*
X164652621Y-65780000D01*
X164817544Y-65615077D01*
X164960907Y-65400518D01*
X165059658Y-65162113D01*
X165110000Y-64909024D01*
X165110000Y-64650976D01*
X165059658Y-64397887D01*
X164960907Y-64159482D01*
X164817544Y-63944923D01*
X164652621Y-63780000D01*
X164817544Y-63615077D01*
X164960907Y-63400518D01*
X165059658Y-63162113D01*
X165110000Y-62909024D01*
X165110000Y-62650976D01*
X165059658Y-62397887D01*
X164960907Y-62159482D01*
X164817544Y-61944923D01*
X164652621Y-61780000D01*
X164817544Y-61615077D01*
X164960907Y-61400518D01*
X165059658Y-61162113D01*
X165110000Y-60909024D01*
X165110000Y-60650976D01*
X165059658Y-60397887D01*
X164960907Y-60159482D01*
X164817544Y-59944923D01*
X164652621Y-59780000D01*
X164817544Y-59615077D01*
X164960907Y-59400518D01*
X165059658Y-59162113D01*
X165110000Y-58909024D01*
X165110000Y-58650976D01*
X165059658Y-58397887D01*
X164960907Y-58159482D01*
X164817544Y-57944923D01*
X164652621Y-57780000D01*
X164817544Y-57615077D01*
X164960907Y-57400518D01*
X165059658Y-57162113D01*
X165110000Y-56909024D01*
X165110000Y-56650976D01*
X165059658Y-56397887D01*
X164960907Y-56159482D01*
X164817544Y-55944923D01*
X164652621Y-55780000D01*
X164817544Y-55615077D01*
X164960907Y-55400518D01*
X165059658Y-55162113D01*
X165110000Y-54909024D01*
X165110000Y-54650976D01*
X165059658Y-54397887D01*
X164960907Y-54159482D01*
X164817544Y-53944923D01*
X164635077Y-53762456D01*
X164420518Y-53619093D01*
X164182113Y-53520342D01*
X163929024Y-53470000D01*
X163670976Y-53470000D01*
X163417887Y-53520342D01*
X163179482Y-53619093D01*
X163128736Y-53653000D01*
X157800000Y-53653000D01*
X157775224Y-53655440D01*
X157751399Y-53662667D01*
X157729443Y-53674403D01*
X157710197Y-53690197D01*
X157694403Y-53709443D01*
X157682667Y-53731399D01*
X157675440Y-53755224D01*
X157673000Y-53780000D01*
X139727000Y-53780000D01*
X139724560Y-53755224D01*
X139717333Y-53731399D01*
X139705597Y-53709443D01*
X139689803Y-53690197D01*
X139670557Y-53674403D01*
X139648601Y-53662667D01*
X139624776Y-53655440D01*
X139600000Y-53653000D01*
X134100000Y-53653000D01*
X134075224Y-53655440D01*
X134051399Y-53662667D01*
X134029443Y-53674403D01*
X134010197Y-53690197D01*
X133994403Y-53709443D01*
X133982667Y-53731399D01*
X133975440Y-53755224D01*
X133973000Y-53780000D01*
X133973000Y-55518529D01*
X133729024Y-55470000D01*
X133470976Y-55470000D01*
X133217887Y-55520342D01*
X132979482Y-55619093D01*
X132764923Y-55762456D01*
X132582456Y-55944923D01*
X132439093Y-56159482D01*
X132340342Y-56397887D01*
X132290000Y-56650976D01*
X132230000Y-56650976D01*
X132230000Y-47660000D01*
X165170000Y-47660000D01*
X165170001Y-86250000D01*
%TD*%
M02*
